<svg width="1200" height="760" viewBox="0 0 1200 760" fill="none" xmlns="http://www.w3.org/2000/svg">
    <rect width="1200" height="760" rx="16" fill="#F8FAFC" />
    <rect x="24" y="24" width="220" height="712" rx="12" fill="#FFFFFF" stroke="#E2E8F0" />
    <rect x="268" y="24" width="908" height="84" rx="12" fill="#FFFFFF" stroke="#E2E8F0" />
    <rect x="268" y="128" width="280" height="160" rx="12" fill="#FFFFFF" stroke="#E2E8F0" />
    <rect x="566" y="128" width="280" height="160" rx="12" fill="#FFFFFF" stroke="#E2E8F0" />
    <rect x="864" y="128" width="312" height="160" rx="12" fill="#FFFFFF" stroke="#E2E8F0" />
    <rect x="268" y="308" width="604" height="428" rx="12" fill="#FFFFFF" stroke="#E2E8F0" />
    <rect x="892" y="308" width="284" height="428" rx="12" fill="#FFFFFF" stroke="#E2E8F0" />
    <rect x="48" y="56" width="172" height="14" rx="7" fill="#CBD5E1" />
    <rect x="48" y="90" width="132" height="10" rx="5" fill="#E2E8F0" />
    <rect x="48" y="126" width="152" height="10" rx="5" fill="#E2E8F0" />
    <rect x="292" y="52" width="240" height="16" rx="8" fill="#CBD5E1" />
    <rect x="292" y="84" width="160" height="10" rx="5" fill="#E2E8F0" />
    <rect x="292" y="160" width="100" height="12" rx="6" fill="#CBD5E1" />
    <rect x="292" y="182" width="180" height="9" rx="4.5" fill="#E2E8F0" />
    <rect x="590" y="160" width="100" height="12" rx="6" fill="#CBD5E1" />
    <rect x="590" y="182" width="180" height="9" rx="4.5" fill="#E2E8F0" />
    <rect x="888" y="160" width="100" height="12" rx="6" fill="#CBD5E1" />
    <rect x="888" y="182" width="180" height="9" rx="4.5" fill="#E2E8F0" />
</svg>