<svg width="1200" height="760" viewBox="0 0 1200 760" fill="none" xmlns="http://www.w3.org/2000/svg">
    <rect width="1200" height="760" rx="16" fill="#F8FAFC" />
    <rect x="36" y="36" width="1128" height="88" rx="12" fill="#FFFFFF" stroke="#E2E8F0" />
    <rect x="36" y="144" width="1128" height="220" rx="12" fill="#FFFFFF" stroke="#E2E8F0" />
    <rect x="36" y="384" width="548" height="340" rx="12" fill="#FFFFFF" stroke="#E2E8F0" />
    <rect x="616" y="384" width="548" height="340" rx="12" fill="#FFFFFF" stroke="#E2E8F0" />
    <rect x="64" y="66" width="240" height="14" rx="7" fill="#CBD5E1" />
    <rect x="64" y="96" width="140" height="10" rx="5" fill="#E2E8F0" />
    <rect x="64" y="176" width="280" height="14" rx="7" fill="#CBD5E1" />
    <rect x="64" y="206" width="760" height="10" rx="5" fill="#E2E8F0" />
    <rect x="64" y="228" width="700" height="10" rx="5" fill="#E2E8F0" />
    <rect x="64" y="430" width="220" height="12" rx="6" fill="#CBD5E1" />
    <rect x="64" y="456" width="420" height="9" rx="4.5" fill="#E2E8F0" />
    <rect x="644" y="430" width="220" height="12" rx="6" fill="#CBD5E1" />
    <rect x="644" y="456" width="420" height="9" rx="4.5" fill="#E2E8F0" />
</svg>